<svg width="33" height="33" viewBox="0 0 33 33" fill="none" xmlns="http://www.w3.org/2000/svg">
<path d="M1.77405 0.304379C1.36823 -0.10146 0.710203 -0.10146 0.304388 0.304379C-0.101425 0.710219 -0.101425 1.36821 0.304388 1.77406L1.77405 0.304379ZM31.1765 32.2157C31.7504 32.2157 32.2157 31.7504 32.2157 31.1765V21.8235C32.2157 21.2496 31.7504 20.7843 31.1765 20.7843C30.6025 20.7843 30.1372 21.2496 30.1372 21.8235V30.1372H21.8235C21.2496 30.1372 20.7843 30.6025 20.7843 31.1765C20.7843 31.7504 21.2496 32.2157 21.8235 32.2157H31.1765ZM0.304388 1.77406L30.4416 31.9113L31.9113 30.4416L1.77405 0.304379L0.304388 1.77406Z" fill="url(#paint0_linear_8061_573)"/>
<defs>
<linearGradient id="paint0_linear_8061_573" x1="24.1733" y1="0.00389664" x2="23.6088" y2="34.8217" gradientUnits="userSpaceOnUse">
<stop stop-color="#A4BBD1"/>
<stop offset="0.283654" stop-color="#EFF3F6"/>
<stop offset="0.692308" stop-color="#A4BBD1"/>
<stop offset="1" stop-color="#EFF3F6"/>
</linearGradient>
</defs>
</svg>
